<?xml version="1.0" encoding="UTF-8"?>
<svg width="24px" height="21px" viewBox="0 0 24 21" version="1.1" xmlns="http://www.w3.org/2000/svg" xmlns:xlink="http://www.w3.org/1999/xlink">
    <!-- Generator: Sketch 41.2 (35397) - http://www.bohemiancoding.com/sketch -->
    <title>Inbox Icon</title>
    <desc>Created with Sketch.</desc>
    <defs></defs>
    <g id="Sample" stroke="none" stroke-width="1" fill="none" fill-rule="evenodd">
        <g id="Tablet" transform="translate(-708.000000, -1162.000000)" fill="#FFFFFF">
            <g id="Features-#2" transform="translate(0.000000, 720.000000)">
                <g id="Features" transform="translate(135.000000, 358.000000)">
                    <g id="Feature" transform="translate(400.000000, 0.000000)">
                        <g id="Icon" transform="translate(150.000000, 60.000000)">
                            <path d="M43.9894997,44.9999993 L26.0105003,44.9999993 C24.3548087,45.005811 23.0074409,43.6691845 23.0000004,42.0134994 L23.0000004,34.4999997 C22.9998839,34.338917 23.0257147,34.1788671 23.0765004,34.0259997 L25.8410003,25.7324999 C26.2079809,24.7055082 27.1745092,24.0147036 28.2650002,24 L41.7349998,24 C42.8247819,24.0168606 43.7902078,24.7068772 44.1589997,25.7324999 L46.9234996,34.0259997 C46.9742853,34.1788671 47.0001161,34.338917 46.9999996,34.4999997 L46.9999996,42.0134994 C46.9925591,43.6691845 45.6451913,45.005811 43.9894997,44.9999993 L43.9894997,44.9999993 Z M26.0105003,41.9999994 L43.9894997,41.9999994 C44.0014997,41.9999994 43.9999997,41.9999994 43.9999997,42.0134994 L43.9999997,35.9999996 L40.1854998,35.9999996 C39.1182176,37.8556623 37.1406951,38.9995653 35,38.9995653 C32.8593049,38.9995653 30.8817824,37.8556623 29.8145002,35.9999996 L26.0000003,35.9999996 L26.0000003,42.0134994 C26.0000003,41.9999994 26.0000003,41.9999994 26.0105003,41.9999994 L26.0105003,41.9999994 Z M41.4184998,26.9999999 L28.5815002,26.9999999 L26.5805003,32.9999997 L30.7565001,32.9999997 C30.937517,33.0030506 31.116454,33.039143 31.2845001,33.1064997 C31.3361214,33.1281164 31.386234,33.1531727 31.4345001,33.1814997 C31.5427592,33.2358742 31.6435844,33.3039312 31.7345001,33.3839997 C31.7798772,33.4219087 31.8224858,33.4630134 31.8620001,33.5069997 C31.9448216,33.6012238 32.0153825,33.7055531 32.0720001,33.8174997 C32.098859,33.8622039 32.1233917,33.9082653 32.1455001,33.9554997 C32.1455001,33.9719997 32.1650001,33.9839997 32.1710001,34.0004997 C32.5943059,35.199977 33.7280198,36.0021214 35,36.0021214 C36.2719802,36.0021214 37.4056941,35.199977 37.8289999,34.0004997 C37.8289999,33.9839997 37.8469999,33.9719997 37.8544999,33.9554997 C37.8766083,33.9082653 37.901141,33.8622039 37.9279999,33.8174997 C37.9846175,33.7055531 38.0551784,33.6012238 38.1379999,33.5069997 C38.1775142,33.4630134 38.2201228,33.4219087 38.2654999,33.3839997 C38.3564156,33.3039312 38.4572408,33.2358742 38.5654999,33.1814997 C38.6140883,33.1537708 38.6641638,33.1287331 38.7154999,33.1064997 C38.883546,33.039143 39.062483,33.0030506 39.2434999,32.9999997 L43.4194997,32.9999997 L41.4184998,26.9999999 Z" id="Inbox-Icon"></path>
                        </g>
                    </g>
                </g>
            </g>
        </g>
    </g>
</svg>