<?xml version="1.0" encoding="UTF-8"?>
<svg width="9px" height="16px" viewBox="0 0 9 16" version="1.1" xmlns="http://www.w3.org/2000/svg" xmlns:xlink="http://www.w3.org/1999/xlink">
    <!-- Generator: Sketch 41.2 (35397) - http://www.bohemiancoding.com/sketch -->
    <title>Icon</title>
    <desc>Created with Sketch.</desc>
    <defs></defs>
    <g id="Sample" stroke="none" stroke-width="1" fill="none" fill-rule="evenodd">
        <g id="Tablet" transform="translate(-1241.000000, -7447.000000)" fill="#BABDC3">
            <g id="Footer-#4" transform="translate(0.000000, 7410.000000)">
                <g id="Social-Icons" transform="translate(1187.000000, 25.000000)">
                    <g id="Facebook" transform="translate(39.000000, 0.000000)">
                        <g id="Icon/Facebook" transform="translate(12.000000, 12.000000)">
                            <path d="M5.6676666,16 L5.6676666,8.68304873 L3,8.68304873 L3,5.88421491 L5.66830941,5.88421491 L5.66830941,3.77176177 C5.66830941,1.3394419 7.25605314,5.68434189e-14 9.60552818,5.68434189e-14 C10.7304478,5.68434189e-14 11.7178059,0.0733027905 12,0.106622241 L12,2.68554769 L10.3286908,2.68554769 C9.05078209,2.68554769 8.81165631,3.24531445 8.81165631,4.07163682 L8.81165631,5.88421491 L11.8695093,5.88421491 L11.472252,8.68304873 L8.81165631,8.68304873 L8.81165631,16 L5.66188129,16 L5.6676666,16 Z" id="Facebook-Icon"></path>
                        </g>
                    </g>
                </g>
            </g>
        </g>
    </g>
</svg>