<?xml version="1.0" encoding="UTF-8"?>
<svg width="16px" height="16px" viewBox="0 0 16 16" version="1.1" xmlns="http://www.w3.org/2000/svg" xmlns:xlink="http://www.w3.org/1999/xlink">
    <!-- Generator: Sketch 41.2 (35397) - http://www.bohemiancoding.com/sketch -->
    <title>Icon</title>
    <desc>Created with Sketch.</desc>
    <defs></defs>
    <g id="Sample" stroke="none" stroke-width="1" fill="none" fill-rule="evenodd">
        <g id="Tablet" transform="translate(-1277.000000, -7447.000000)" fill="#BABDC3">
            <g id="Footer-#4" transform="translate(0.000000, 7410.000000)">
                <g id="Social-Icons" transform="translate(1187.000000, 25.000000)">
                    <g id="Instagram" transform="translate(78.000000, 0.000000)">
                        <g id="Icon/Instagram" transform="translate(12.000000, 12.000000)">
                            <path d="M0,4.62786293 C0,2.07196481 2.05896497,0 4.62786293,0 L11.3721371,0 C13.9280352,0 16,2.05896497 16,4.62786293 L16,11.3721371 C16,13.9280352 13.941035,16 11.3721371,16 L4.62786293,16 C2.07196481,16 0,13.941035 0,11.3721371 L0,4.62786293 Z M1.44827586,4.75482914 C1.44827586,2.92867019 2.92593657,1.44827586 4.75482914,1.44827586 L11.2451709,1.44827586 C13.0713298,1.44827586 14.5517241,2.92593657 14.5517241,4.75482914 L14.5517241,11.2451709 C14.5517241,13.0713298 13.0740634,14.5517241 11.2451709,14.5517241 L4.75482914,14.5517241 C2.92867019,14.5517241 1.44827586,13.0740634 1.44827586,11.2451709 L1.44827586,4.75482914 Z M8,12.0689655 C10.2472276,12.0689655 12.0689655,10.2472276 12.0689655,8 C12.0689655,5.7527724 10.2472276,3.93103448 8,3.93103448 C5.7527724,3.93103448 3.93103448,5.7527724 3.93103448,8 C3.93103448,10.2472276 5.7527724,12.0689655 8,12.0689655 Z M8,10.6206897 C9.44736693,10.6206897 10.6206897,9.44736693 10.6206897,8 C10.6206897,6.55263307 9.44736693,5.37931034 8,5.37931034 C6.55263307,5.37931034 5.37931034,6.55263307 5.37931034,8 C5.37931034,9.44736693 6.55263307,10.6206897 8,10.6206897 Z M12.2068966,4.68965517 C12.740137,4.68965517 13.1724138,4.25737838 13.1724138,3.72413793 C13.1724138,3.19089748 12.740137,2.75862069 12.2068966,2.75862069 C11.6736561,2.75862069 11.2413793,3.19089748 11.2413793,3.72413793 C11.2413793,4.25737838 11.6736561,4.68965517 12.2068966,4.68965517 Z" id="Instagram"></path>
                        </g>
                    </g>
                </g>
            </g>
        </g>
    </g>
</svg>